<svg id="Layer_1" enable-background="new 0 0 256 256" height="512" viewBox="0 0 256 256" width="512" xmlns="http://www.w3.org/2000/svg"><g><g><path d="m33.488 21.847h156.577v201.333h-156.577z" fill="#cecece"/><g><path d="m33.488 21.847h6.5v201.333h-6.5z" fill="#afafaf"/></g><g><path d="m183.564 21.847h6.5v201.333h-6.5z" fill="#e2e2e2"/></g><path d="m166.814 115.604h-3.722c-3.024 0-5.476-2.452-5.476-5.476v-27.138c0-3.024 2.452-5.476 5.476-5.476h3.722z" fill="#63bce7"/><path d="m213.314 115.604h3.722c3.024 0 5.476-2.452 5.476-5.476v-27.138c0-3.024-2.452-5.476-5.476-5.476h-3.722z" fill="#63e2e7"/><path d="m166.814 81.677h46.5v29.763h-46.5z" fill="#63bce7"/><g fill="#9e9e9e"><path d="m166.814 81.677h6.238v29.763h-6.238z"/><path d="m207.076 81.677h6.238v29.763h-6.238z"/><path d="m190.064 223.18c-6.603 0-11.843-5.56-11.453-12.151l3.527-99.589h15.852l3.527 99.589c.39 6.592-4.85 12.151-11.453 12.151z"/></g><g><path d="m201.517 211.029-3.527-99.589h-6.5l3.527 99.589c.323 5.461-3.223 10.203-8.203 11.673 1.03.304 2.118.478 3.25.478 6.603 0 11.843-5.559 11.453-12.151z" fill="#cecece"/></g><g><circle cx="112.318" cy="80.056" fill="#f46275" r="40.125"/><g><path d="m112.318 39.931c-1.095 0-2.177.056-3.25.142 20.639 1.656 36.875 18.917 36.875 39.983 0 21.065-16.236 38.327-36.875 39.983 1.073.086 2.155.142 3.25.142 22.16 0 40.125-17.965 40.125-40.125s-17.965-40.125-40.125-40.125z" fill="#f48875"/></g><g><path d="m132.496 80.032v13.849c0 1.079-.405 2.015-1.214 2.808s-1.769 1.19-2.879 1.19h-12.183v9.756c0 1.111-.397 2.054-1.189 2.832-.793.778-1.73 1.166-2.808 1.166-1.141 0-2.11-.388-2.903-1.166s-1.19-1.721-1.19-2.832v-9.851h-12.088c-1.079 0-2.015-.388-2.808-1.166s-1.19-1.721-1.19-2.832c0-1.11.388-2.054 1.166-2.832.778-.777 1.721-1.166 2.832-1.166h28.269v-5.758h-28.174c-1.111 0-2.054-.381-2.831-1.142-.779-.761-1.167-1.713-1.167-2.856v-13.801c0-1.111.388-2.054 1.167-2.832.777-.777 1.72-1.166 2.831-1.166h11.992v-9.756c0-1.079.373-2.015 1.119-2.808.745-.793 1.753-1.189 3.022-1.189 1.079 0 2.006.389 2.784 1.166.777.778 1.166 1.721 1.166 2.832v9.756h12.278c1.11 0 2.07.397 2.879 1.189.809.793 1.214 1.73 1.214 2.808 0 1.111-.405 2.07-1.214 2.879s-1.769 1.214-2.879 1.214h-28.268v5.71h28.174c1.11 0 2.07.398 2.879 1.19.809.794 1.213 1.729 1.213 2.808z" fill="#f8af23"/></g></g></g><g fill="#3f3679"><path d="m112.318 121.681c22.952 0 41.625-18.673 41.625-41.625s-18.673-41.625-41.625-41.625-41.625 18.673-41.625 41.625 18.673 41.625 41.625 41.625zm0-80.25c21.297 0 38.625 17.327 38.625 38.625s-17.327 38.625-38.625 38.625-38.625-17.327-38.625-38.625 17.327-38.625 38.625-38.625z"/><path d="m96.042 88.288c-1.517 0-2.826.54-3.893 1.605-1.065 1.065-1.605 2.375-1.605 3.893 0 1.523.552 2.836 1.64 3.902 1.079 1.059 2.377 1.596 3.858 1.596h10.587v8.351c0 1.523.552 2.836 1.64 3.903 1.079 1.059 2.409 1.595 3.953 1.595 1.481 0 2.779-.537 3.859-1.596 1.087-1.067 1.638-2.38 1.638-3.902v-8.256h10.684c1.513 0 2.835-.545 3.929-1.618 1.104-1.082 1.664-2.387 1.664-3.879v-13.85c0-1.491-.56-2.796-1.664-3.878-1.096-1.075-2.417-1.62-3.929-1.62h-26.673v-2.71h26.769c1.517 0 2.842-.556 3.94-1.653 1.097-1.097 1.652-2.422 1.652-3.94 0-1.491-.56-2.796-1.664-3.88-1.096-1.073-2.418-1.618-3.928-1.618h-10.779v-8.256c0-1.517-.54-2.826-1.605-3.894-1.066-1.064-2.359-1.604-3.844-1.604-1.693 0-3.077.559-4.115 1.662-1.012 1.078-1.525 2.368-1.525 3.836v8.256h-10.494c-1.518 0-2.827.54-3.891 1.604-1.066 1.065-1.606 2.375-1.606 3.893v13.801c0 1.557.544 2.878 1.617 3.927 1.063 1.042 2.369 1.571 3.881 1.571h26.674v2.758h-26.77zm28.269-5.758h-28.174c-.718 0-1.285-.227-1.782-.714-.488-.478-.715-1.044-.715-1.784v-13.801c0-.713.231-1.275.728-1.771.495-.496 1.058-.727 1.77-.727h11.993c.829 0 1.5-.671 1.5-1.5v-9.756c0-.699.226-1.265.711-1.781.29-.308.805-.717 1.93-.717.68 0 1.228.231 1.723.726.496.497.727 1.06.727 1.772v9.756c0 .829.671 1.5 1.5 1.5h12.279c.718 0 1.299.242 1.829.76.521.511.764 1.063.764 1.737 0 .713-.246 1.291-.773 1.818-.528.529-1.106.775-1.819.775h-28.272c-.829 0-1.5.671-1.5 1.5v5.71c0 .829.671 1.5 1.5 1.5h28.173c.718 0 1.299.242 1.829.762.521.511.764 1.063.764 1.736v13.849c0 .674-.242 1.226-.765 1.737-.528.519-1.109.761-1.828.761h-12.183c-.829 0-1.5.671-1.5 1.5v9.756c0 .707-.235 1.266-.739 1.761-.513.503-1.072.737-1.758.737-.751 0-1.34-.234-1.853-.737-.505-.495-.74-1.054-.74-1.761v-9.851c0-.829-.671-1.5-1.5-1.5h-12.088c-.687 0-1.245-.234-1.757-.737-.505-.495-.741-1.055-.741-1.761 0-.713.231-1.275.726-1.771.497-.496 1.06-.727 1.772-.727h28.269c.829 0 1.5-.671 1.5-1.5v-5.757c0-.829-.672-1.5-1.5-1.5z"/><path d="m166.814 131.347h-108.993c-.829 0-1.5.671-1.5 1.5s.671 1.5 1.5 1.5h108.994c.828 0 1.5-.671 1.5-1.5s-.672-1.5-1.501-1.5z"/><path d="m166.814 151.347h-108.993c-.829 0-1.5.671-1.5 1.5s.671 1.5 1.5 1.5h108.994c.828 0 1.5-.671 1.5-1.5s-.672-1.5-1.501-1.5z"/><path d="m166.814 171.347h-108.993c-.829 0-1.5.671-1.5 1.5s.671 1.5 1.5 1.5h108.994c.828 0 1.5-.671 1.5-1.5s-.672-1.5-1.501-1.5z"/><path d="m166.814 191.347h-108.993c-.829 0-1.5.671-1.5 1.5s.671 1.5 1.5 1.5h108.994c.828 0 1.5-.671 1.5-1.5s-.672-1.5-1.501-1.5z"/><path d="m27.323 232.653h-18.003c-.829 0-1.5.671-1.5 1.5s.671 1.5 1.5 1.5h18.003c.829 0 1.5-.671 1.5-1.5s-.671-1.5-1.5-1.5z"/><path d="m246.68 232.653h-18.003c-.828 0-1.5.671-1.5 1.5s.672 1.5 1.5 1.5h18.003c.828 0 1.5-.671 1.5-1.5s-.672-1.5-1.5-1.5z"/><path d="m218.479 232.653h-180.958c-.829 0-1.5.671-1.5 1.5s.671 1.5 1.5 1.5h180.959c.828 0 1.5-.671 1.5-1.5s-.672-1.5-1.501-1.5z"/><path d="m246.68 224.68c.828 0 1.5-.671 1.5-1.5s-.672-1.5-1.5-1.5h-48.33c.401-.335.79-.688 1.155-1.075 2.477-2.627 3.723-6.06 3.511-9.629l-3.471-98.036h7.531 4.739v2.664c0 .829.672 1.5 1.5 1.5h3.722c3.847 0 6.977-3.13 6.977-6.977v-27.137c0-3.847-3.13-6.976-6.977-6.976h-3.722c-.828 0-1.5.671-1.5 1.5v2.664h-4.739-15.511v-58.331c0-.829-.672-1.5-1.5-1.5h-156.577c-.829 0-1.5.671-1.5 1.5v199.833h-22.668c-.829 0-1.5.671-1.5 1.5s.671 1.5 1.5 1.5h24.168 156.577zm-46.66-13.562c.164 2.771-.794 5.409-2.698 7.429-1.903 2.021-4.481 3.133-7.257 3.133s-5.354-1.112-7.257-3.132c-1.904-2.02-2.862-4.659-2.697-7.465l3.476-98.143h12.956zm-34.706-129.441v29.763 2.664h-2.223c-2.192 0-3.976-1.784-3.976-3.977v-27.137c0-2.192 1.783-3.976 3.976-3.976h2.223zm3 1.5h3.238v26.763h-3.238zm6.239 0h31.022v26.763h-7.585-15.853-7.585v-26.763zm40.261-4.163h2.222c2.192 0 3.977 1.784 3.977 3.976v27.138c0 2.193-1.784 3.977-3.977 3.977h-2.222v-2.664-29.764zm-3 4.163v26.763h-3.239v-26.763zm-176.826 138.503v-198.333h153.577v56.831h-15.512-4.738v-2.664c0-.829-.672-1.5-1.5-1.5h-3.723c-3.847 0-6.976 3.129-6.976 6.976v27.138c0 3.847 3.129 6.977 6.976 6.977h3.723c.828 0 1.5-.671 1.5-1.5v-2.664h4.738 7.531l-3.469 98.001c-.214 3.605 1.033 7.037 3.51 9.665.365.387.753.74 1.154 1.074h-146.791z"/></g></g></svg>